<svg id="SvgjsSvg1128" width="471" height="573.3875122070312" xmlns="http://www.w3.org/2000/svg" version="1.1" xmlns:xlink="http://www.w3.org/1999/xlink" xmlns:svgjs="http://svgjs.com/svgjs"><defs id="SvgjsDefs1129"><marker id="SvgjsMarker1164" markerWidth="16" markerHeight="12" refX="16" refY="6" viewBox="0 0 16 12" orient="auto" markerUnits="userSpaceOnUse"><path id="SvgjsPath1165" d="M0,2 L14,6 L0,11 L0,2" fill="#323232" stroke="#323232" stroke-width="2"></path></marker><marker id="SvgjsMarker1200" markerWidth="16" markerHeight="12" refX="16" refY="6" viewBox="0 0 16 12" orient="auto" markerUnits="userSpaceOnUse"><path id="SvgjsPath1201" d="M0,2 L14,6 L0,11 L0,2" fill="#323232" stroke="#323232" stroke-width="2"></path></marker><marker id="SvgjsMarker1204" markerWidth="16" markerHeight="12" refX="16" refY="6" viewBox="0 0 16 12" orient="auto" markerUnits="userSpaceOnUse"><path id="SvgjsPath1205" d="M0,2 L14,6 L0,11 L0,2" fill="#323232" stroke="#323232" stroke-width="2"></path></marker><marker id="SvgjsMarker1208" markerWidth="16" markerHeight="12" refX="16" refY="6" viewBox="0 0 16 12" orient="auto" markerUnits="userSpaceOnUse"><path id="SvgjsPath1209" d="M0,2 L14,6 L0,11 L0,2" fill="#323232" stroke="#323232" stroke-width="2"></path></marker><marker id="SvgjsMarker1212" markerWidth="16" markerHeight="12" refX="16" refY="6" viewBox="0 0 16 12" orient="auto" markerUnits="userSpaceOnUse"><path id="SvgjsPath1213" d="M0,2 L14,6 L0,11 L0,2" fill="#323232" stroke="#323232" stroke-width="2"></path></marker><marker id="SvgjsMarker1216" markerWidth="16" markerHeight="12" refX="16" refY="6" viewBox="0 0 16 12" orient="auto" markerUnits="userSpaceOnUse"><path id="SvgjsPath1217" d="M0,2 L14,6 L0,11 L0,2" fill="#323232" stroke="#323232" stroke-width="2"></path></marker><marker id="SvgjsMarker1220" markerWidth="16" markerHeight="12" refX="16" refY="6" viewBox="0 0 16 12" orient="auto" markerUnits="userSpaceOnUse"><path id="SvgjsPath1221" d="M0,2 L14,6 L0,11 L0,2" fill="#323232" stroke="#323232" stroke-width="2"></path></marker><marker id="SvgjsMarker1244" markerWidth="16" markerHeight="12" refX="16" refY="6" viewBox="0 0 16 12" orient="auto" markerUnits="userSpaceOnUse"><path id="SvgjsPath1245" d="M0,2 L14,6 L0,11 L0,2" fill="#323232" stroke="#323232" stroke-width="2"></path></marker><marker id="SvgjsMarker1248" markerWidth="16" markerHeight="12" refX="16" refY="6" viewBox="0 0 16 12" orient="auto" markerUnits="userSpaceOnUse"><path id="SvgjsPath1249" d="M0,2 L14,6 L0,11 L0,2" fill="#323232" stroke="#323232" stroke-width="2"></path></marker></defs><rect id="SvgjsRect1130" width="471" height="573.3875122070312" fill="#ffffff"></rect><g id="SvgjsG1131" transform="translate(25,432.3881370995182)"><path id="SvgjsPath1132" d="M 0 0L 421 0L 421 116L 0 116Z" stroke="#323232" stroke-width="2" fill="none"></path><path id="SvgjsPath1133" d="M 0 0L 40 0L 40 116L 0 116Z" stroke="#323232" stroke-width="2" fill-opacity="1" fill="#ffffff"></path><g id="SvgjsG1134"><text id="SvgjsText1135" font-family="微软雅黑" text-anchor="middle" font-size="16px" width="48" fill="#323232" font-weight="400" align="middle" anchor="middle" family="微软雅黑" size="16px" weight="400" font-style="" y="7.6" transform="rotate(270)"><tspan id="SvgjsTspan1136" dy="20" x="-58"><tspan id="SvgjsTspan1137" style="text-decoration:;">jm-ms</tspan></tspan></text></g></g><g id="SvgjsG1138" transform="translate(332.5,335.3881370995182)"><path id="SvgjsPath1139" d="M 0 35C 0 -11.666666666666666 70 -11.666666666666666 70 35C 70 81.66666666666667 0 81.66666666666667 0 35Z" stroke="#323232" stroke-width="2" fill-opacity="1" fill="#e6ffcc"></path><g id="SvgjsG1140"><text id="SvgjsText1141" font-family="微软雅黑" text-anchor="middle" font-size="13px" width="42" fill="#323232" font-weight="400" align="middle" anchor="middle" family="微软雅黑" size="13px" weight="400" font-style="" y="25.05" transform="rotate(0)"><tspan id="SvgjsTspan1142" dy="16" x="35"><tspan id="SvgjsTspan1143" style="text-decoration:;">logger</tspan></tspan></text></g></g><g id="SvgjsG1144" transform="translate(93.04166666666669,231.36679147659834)"><path id="SvgjsPath1145" d="M 0 35C 0 -11.666666666666666 70 -11.666666666666666 70 35C 70 81.66666666666667 0 81.66666666666667 0 35Z" stroke="#323232" stroke-width="2" fill-opacity="1" fill="#e6ffcc"></path><g id="SvgjsG1146"><text id="SvgjsText1147" font-family="微软雅黑" text-anchor="middle" font-size="13px" width="45" fill="#323232" font-weight="400" align="middle" anchor="middle" family="微软雅黑" size="13px" weight="400" font-style="" y="25.05" transform="rotate(0)"><tspan id="SvgjsTspan1148" dy="16" x="35"><tspan id="SvgjsTspan1149" style="text-decoration:;">Service</tspan></tspan></text></g></g><g id="SvgjsG1150" transform="translate(215,460.30596959721356)"><path id="SvgjsPath1151" d="M 0 35C 0 -11.666666666666666 70 -11.666666666666666 70 35C 70 81.66666666666667 0 81.66666666666667 0 35Z" stroke="#323232" stroke-width="2" fill-opacity="1" fill="#ffffff"></path><g id="SvgjsG1152"><text id="SvgjsText1153" font-family="微软雅黑" text-anchor="middle" font-size="13px" width="18" fill="#323232" font-weight="400" align="middle" anchor="middle" family="微软雅黑" size="13px" weight="400" font-style="" y="25.05" transform="rotate(0)"><tspan id="SvgjsTspan1154" dy="16" x="35"><tspan id="SvgjsTspan1155" style="text-decoration:;">ms</tspan></tspan></text></g></g><g id="SvgjsG1156" transform="translate(215,324.8256886519598)"><path id="SvgjsPath1157" d="M 0 35C 0 -11.666666666666666 70 -11.666666666666666 70 35C 70 81.66666666666667 0 81.66666666666667 0 35Z" stroke="#323232" stroke-width="2" fill-opacity="1" fill="#e6ffcc"></path><g id="SvgjsG1158"><text id="SvgjsText1159" font-family="微软雅黑" text-anchor="middle" font-size="13px" width="38" fill="#323232" font-weight="400" align="middle" anchor="middle" family="微软雅黑" size="13px" weight="400" font-style="" y="25.05" transform="rotate(0)"><tspan id="SvgjsTspan1160" dy="16" x="35"><tspan id="SvgjsTspan1161" style="text-decoration:;">server</tspan></tspan></text></g></g><g id="SvgjsG1162"><path id="SvgjsPath1163" d="M250 394.8256886519598C 250 421.01780103006126 250 434.1138572191121 250 460.30596959721356" stroke="#323232" stroke-width="2" fill="none" marker-end="url(#SvgjsMarker1164)"></path></g><g id="SvgjsG1166" transform="translate(91.12500000000006,335.3881370995182)"><path id="SvgjsPath1167" d="M 0 35C 0 -11.666666666666666 70 -11.666666666666666 70 35C 70 81.66666666666667 0 81.66666666666667 0 35Z" stroke="#323232" stroke-width="2" fill-opacity="1" fill="#e6ffcc"></path><g id="SvgjsG1168"><text id="SvgjsText1169" font-family="微软雅黑" text-anchor="middle" font-size="13px" width="40" fill="#323232" font-weight="400" align="middle" anchor="middle" family="微软雅黑" size="13px" weight="400" font-style="" y="25.05" transform="rotate(0)"><tspan id="SvgjsTspan1170" dy="16" x="35"><tspan id="SvgjsTspan1171" style="text-decoration:;">config</tspan></tspan></text></g></g><g id="SvgjsG1172" transform="translate(209.5,73.95172447408049)"><path id="SvgjsPath1173" d="M 0 37.04827552591962C 0 -12.349425175306541 75 -12.349425175306541 75 37.04827552591962C 75 86.44597622714578 0 86.44597622714578 0 37.04827552591962Z" stroke="#323232" stroke-width="2" fill-opacity="1" fill="#ffffff"></path><g id="SvgjsG1174"><text id="SvgjsText1175" font-family="微软雅黑" text-anchor="middle" font-size="13px" width="26" fill="#000000" font-weight="400" align="middle" anchor="middle" family="微软雅黑" size="13px" weight="400" font-style="" y="27.09827552591962" transform="rotate(0)"><tspan id="SvgjsTspan1176" dy="16" x="37.5"><tspan id="SvgjsTspan1177" style="text-decoration:;">服务</tspan></tspan></text></g></g><g id="SvgjsG1178" transform="translate(212.87499999999994,205.38817524649085)"><path id="SvgjsPath1179" d="M 0 35C 0 -11.666666666666666 70 -11.666666666666666 70 35C 70 81.66666666666667 0 81.66666666666667 0 35Z" stroke="#323232" stroke-width="2" fill-opacity="1" fill="#e6ffcc"></path><g id="SvgjsG1180"><text id="SvgjsText1181" font-family="微软雅黑" text-anchor="middle" font-size="13px" width="48" fill="#323232" font-weight="400" align="middle" anchor="middle" family="微软雅黑" size="13px" weight="400" font-style="" y="25.05" transform="rotate(0)"><tspan id="SvgjsTspan1182" dy="16" x="35"><tspan id="SvgjsTspan1183" style="text-decoration:;">module</tspan></tspan></text></g></g><g id="SvgjsG1184" transform="translate(333,62)"><path id="SvgjsPath1185" d="M 0 36C 0 -12 74 -12 74 36C 74 84 0 84 0 36Z" stroke="#323232" stroke-width="2" fill-opacity="1" fill="#ffffff"></path><g id="SvgjsG1186"><text id="SvgjsText1187" font-family="微软雅黑" text-anchor="middle" font-size="13px" width="26" fill="#323232" font-weight="400" align="middle" anchor="middle" family="微软雅黑" size="13px" weight="400" font-style="" y="26.05" transform="rotate(0)"><tspan id="SvgjsTspan1188" dy="16" x="37"><tspan id="SvgjsTspan1189" style="text-decoration:;">路由</tspan></tspan></text></g></g><g id="SvgjsG1190" transform="translate(333.87499999999994,234.44899712587562)"><path id="SvgjsPath1191" d="M 0 33.45889717536136C 0 -11.152965725120453 69 -11.152965725120453 69 33.45889717536136C 69 78.07076007584317 0 78.07076007584317 0 33.45889717536136Z" stroke="#323232" stroke-width="2" fill-opacity="1" fill="#e6ffcc"></path><g id="SvgjsG1192"><text id="SvgjsText1193" font-family="微软雅黑" text-anchor="middle" font-size="13px" width="44" fill="#323232" font-weight="400" align="middle" anchor="middle" family="微软雅黑" size="13px" weight="400" font-style="" y="15.508897175361358" transform="rotate(0)"><tspan id="SvgjsTspan1194" dy="16" x="34.5"><tspan id="SvgjsTspan1195" style="text-decoration:;">Router</tspan></tspan><tspan id="SvgjsTspan1196" dy="16" x="34.5"><tspan id="SvgjsTspan1197" style="text-decoration:;">Loader</tspan></tspan></text></g></g><g id="SvgjsG1198"><path id="SvgjsPath1199" d="M215 359.8256886519598C 193.039741559964 359.8256886519598 183.08525844003606 370.3881370995182 161.12500000000006 370.3881370995182" stroke="#323232" stroke-width="2" fill="none" marker-end="url(#SvgjsMarker1200)"></path></g><g id="SvgjsG1202"><path id="SvgjsPath1203" d="M284.0607689879512 367.2232016400551C 303.1827876658517 370.59492945858005 313.08299336148355 370.3881370995182 332.5 370.3881370995182" stroke="#323232" stroke-width="2" fill="none" marker-end="url(#SvgjsMarker1204)"></path></g><g id="SvgjsG1206"><path id="SvgjsPath1207" d="M247.87499999999994 205.38817524649085C 247.87499999999994 182.4495450346751 247 170.98690573773524 247 148.0482755259195" stroke="#323232" stroke-width="2" fill="none" marker-end="url(#SvgjsMarker1208)"></path></g><g id="SvgjsG1210"><path id="SvgjsPath1211" d="M250 324.8256886519598C 250 305.0324237096986 247.87499999999994 295.18144018875205 247.87499999999994 275.38817524649085" stroke="#323232" stroke-width="2" fill="none" marker-end="url(#SvgjsMarker1212)"></path></g><g id="SvgjsG1214"><path id="SvgjsPath1215" d="M224.8284271247462 334.8284271247462C 198.74456341781223 308.7445634178123 199.9298204801041 266.36679147659834 163.04166666666669 266.36679147659834" stroke="#323232" stroke-width="2" fill="none" marker-end="url(#SvgjsMarker1216)"></path></g><g id="SvgjsG1218"><path id="SvgjsPath1219" d="M277.80384757729337 339C 309.16891405583505 320.8913704254635 297.6577408509268 267.90789430123687 333.87499999999994 267.90789430123687" stroke="#323232" stroke-width="2" fill="none" marker-end="url(#SvgjsMarker1220)"></path></g><g id="SvgjsG1222" transform="translate(25,25)"><path id="SvgjsPath1223" d="M 0 0L 421 0L 421 146L 0 146Z" stroke="#323232" stroke-width="2" fill="none"></path><path id="SvgjsPath1224" d="M 0 0L 40 0L 40 146L 0 146Z" stroke="#323232" stroke-width="2" fill-opacity="1" fill="#ffffff"></path><g id="SvgjsG1225"><text id="SvgjsText1226" font-family="微软雅黑" text-anchor="middle" font-size="16px" width="32" fill="#323232" font-weight="400" align="middle" anchor="middle" family="微软雅黑" size="16px" weight="400" font-style="" y="7.6" transform="rotate(270)"><tspan id="SvgjsTspan1227" dy="20" x="-73"><tspan id="SvgjsTspan1228" style="text-decoration:;">应用</tspan></tspan></text></g></g><g id="SvgjsG1229" transform="translate(25,171)"><path id="SvgjsPath1230" d="M 0 0L 421 0L 421 261.3881370995182L 0 261.3881370995182Z" stroke="#3333ff" stroke-width="2" fill="none"></path><path id="SvgjsPath1231" d="M 0 0L 40 0L 40 261.3881370995182L 0 261.3881370995182Z" stroke="#3333ff" stroke-width="2" fill-opacity="1" fill="#99ff99"></path><g id="SvgjsG1232"><text id="SvgjsText1233" font-family="微软雅黑" text-anchor="middle" font-size="16px" width="76" fill="#660000" font-weight="700" align="middle" anchor="middle" family="微软雅黑" size="16px" weight="700" font-style="" y="7.6" transform="rotate(270)"><tspan id="SvgjsTspan1234" dy="20" x="-130.3881370995182"><tspan id="SvgjsTspan1235" style="text-decoration:;">jm-server</tspan></tspan></text></g></g><g id="SvgjsG1236" transform="translate(87.66666666666674,60.95172447408049)"><path id="SvgjsPath1237" d="M 0 37.04827552591962C 0 -12.349425175306541 75 -12.349425175306541 75 37.04827552591962C 75 86.44597622714578 0 86.44597622714578 0 37.04827552591962Z" stroke="#323232" stroke-width="2" fill-opacity="1" fill="#ffffff"></path><g id="SvgjsG1238"><text id="SvgjsText1239" font-family="微软雅黑" text-anchor="middle" font-size="13px" width="40" fill="#000000" font-weight="400" align="middle" anchor="middle" family="微软雅黑" size="13px" weight="400" font-style="" y="27.09827552591962" transform="rotate(0)"><tspan id="SvgjsTspan1240" dy="16" x="37.5"><tspan id="SvgjsTspan1241" style="text-decoration:;">控制器</tspan></tspan></text></g></g><g id="SvgjsG1242"><path id="SvgjsPath1243" d="M209.5 111.00000000000011C 190.13233075716573 112.69445149766784 182.034335909501 99.69445149766784 162.66666666666674 98.00000000000011" stroke="#323232" stroke-width="2" fill="none" marker-end="url(#SvgjsMarker1244)"></path></g><g id="SvgjsG1246"><path id="SvgjsPath1247" d="M125.16666666666674 60.95172447408049C 182 49 271 42 370 62" stroke="#323232" stroke-width="2" fill="none" marker-end="url(#SvgjsMarker1248)"></path></g></svg>