<svg id="SvgjsSvg1006" width="471" height="573.3875122070312" xmlns="http://www.w3.org/2000/svg" version="1.1" xmlns:xlink="http://www.w3.org/1999/xlink" xmlns:svgjs="http://svgjs.com/svgjs"><defs id="SvgjsDefs1007"><marker id="SvgjsMarker1052" markerWidth="16" markerHeight="12" refX="16" refY="6" viewBox="0 0 16 12" orient="auto" markerUnits="userSpaceOnUse"><path id="SvgjsPath1053" d="M0,2 L14,6 L0,11 L0,2" fill="#323232" stroke="#323232" stroke-width="2"></path></marker><marker id="SvgjsMarker1088" markerWidth="16" markerHeight="12" refX="16" refY="6" viewBox="0 0 16 12" orient="auto" markerUnits="userSpaceOnUse"><path id="SvgjsPath1089" d="M0,2 L14,6 L0,11 L0,2" fill="#323232" stroke="#323232" stroke-width="2"></path></marker><marker id="SvgjsMarker1092" markerWidth="16" markerHeight="12" refX="16" refY="6" viewBox="0 0 16 12" orient="auto" markerUnits="userSpaceOnUse"><path id="SvgjsPath1093" d="M0,2 L14,6 L0,11 L0,2" fill="#323232" stroke="#323232" stroke-width="2"></path></marker><marker id="SvgjsMarker1096" markerWidth="16" markerHeight="12" refX="16" refY="6" viewBox="0 0 16 12" orient="auto" markerUnits="userSpaceOnUse"><path id="SvgjsPath1097" d="M0,2 L14,6 L0,11 L0,2" fill="#323232" stroke="#323232" stroke-width="2"></path></marker><marker id="SvgjsMarker1100" markerWidth="16" markerHeight="12" refX="16" refY="6" viewBox="0 0 16 12" orient="auto" markerUnits="userSpaceOnUse"><path id="SvgjsPath1101" d="M0,2 L14,6 L0,11 L0,2" fill="#323232" stroke="#323232" stroke-width="2"></path></marker><marker id="SvgjsMarker1104" markerWidth="16" markerHeight="12" refX="16" refY="6" viewBox="0 0 16 12" orient="auto" markerUnits="userSpaceOnUse"><path id="SvgjsPath1105" d="M0,2 L14,6 L0,11 L0,2" fill="#323232" stroke="#323232" stroke-width="2"></path></marker><marker id="SvgjsMarker1108" markerWidth="16" markerHeight="12" refX="16" refY="6" viewBox="0 0 16 12" orient="auto" markerUnits="userSpaceOnUse"><path id="SvgjsPath1109" d="M0,2 L14,6 L0,11 L0,2" fill="#323232" stroke="#323232" stroke-width="2"></path></marker><marker id="SvgjsMarker1112" markerWidth="16" markerHeight="12" refX="16" refY="6" viewBox="0 0 16 12" orient="auto" markerUnits="userSpaceOnUse"><path id="SvgjsPath1113" d="M0,2 L14,6 L0,11 L0,2" fill="#323232" stroke="#323232" stroke-width="2"></path></marker><marker id="SvgjsMarker1136" markerWidth="16" markerHeight="12" refX="16" refY="6" viewBox="0 0 16 12" orient="auto" markerUnits="userSpaceOnUse"><path id="SvgjsPath1137" d="M0,2 L14,6 L0,11 L0,2" fill="#323232" stroke="#323232" stroke-width="2"></path></marker><marker id="SvgjsMarker1140" markerWidth="16" markerHeight="12" refX="16" refY="6" viewBox="0 0 16 12" orient="auto" markerUnits="userSpaceOnUse"><path id="SvgjsPath1141" d="M0,2 L14,6 L0,11 L0,2" fill="#323232" stroke="#323232" stroke-width="2"></path></marker></defs><rect id="SvgjsRect1008" width="471" height="573.3875122070312" fill="#ffffff"></rect><g id="SvgjsG1009" transform="translate(25,432.3881370995182)"><path id="SvgjsPath1010" d="M 0 0L 421 0L 421 116L 0 116Z" stroke="#323232" stroke-width="2" fill="none"></path><path id="SvgjsPath1011" d="M 0 0L 40 0L 40 116L 0 116Z" stroke="#323232" stroke-width="2" fill-opacity="1" fill="#ffffff"></path><g id="SvgjsG1012"><text id="SvgjsText1013" font-family="微软雅黑" text-anchor="middle" font-size="16px" width="48" fill="#323232" font-weight="400" align="middle" anchor="middle" family="微软雅黑" size="16px" weight="400" font-style="" y="7.6" transform="rotate(270)"><tspan id="SvgjsTspan1014" dy="20" x="-58"><tspan id="SvgjsTspan1015" style="text-decoration:;">jm-ms</tspan></tspan></text></g></g><g id="SvgjsG1016" transform="translate(355.66666666666674,177.86630825355815)"><path id="SvgjsPath1017" d="M 0 35C 0 -11.666666666666666 70 -11.666666666666666 70 35C 70 81.66666666666667 0 81.66666666666667 0 35Z" stroke="#323232" stroke-width="2" fill-opacity="1" fill="#ffffff"></path><g id="SvgjsG1018"><text id="SvgjsText1019" font-family="微软雅黑" text-anchor="middle" font-size="13px" width="44" fill="#323232" font-weight="400" align="middle" anchor="middle" family="微软雅黑" size="13px" weight="400" font-style="" y="17.05" transform="rotate(0)"><tspan id="SvgjsTspan1020" dy="16" x="35"><tspan id="SvgjsTspan1021" style="text-decoration:;">server-</tspan></tspan><tspan id="SvgjsTspan1022" dy="16" x="35"><tspan id="SvgjsTspan1023" style="text-decoration:;">sso</tspan></tspan></text></g></g><g id="SvgjsG1024" transform="translate(348.66666666666674,345.3881370995182)"><path id="SvgjsPath1025" d="M 0 35C 0 -11.666666666666666 70 -11.666666666666666 70 35C 70 81.66666666666667 0 81.66666666666667 0 35Z" stroke="#323232" stroke-width="2" fill-opacity="1" fill="#ffffff"></path><g id="SvgjsG1026"><text id="SvgjsText1027" font-family="微软雅黑" text-anchor="middle" font-size="13px" width="42" fill="#323232" font-weight="400" align="middle" anchor="middle" family="微软雅黑" size="13px" weight="400" font-style="" y="25.05" transform="rotate(0)"><tspan id="SvgjsTspan1028" dy="16" x="35"><tspan id="SvgjsTspan1029" style="text-decoration:;">logger</tspan></tspan></text></g></g><g id="SvgjsG1030" transform="translate(87.66666666666674,223.9078943012371)"><path id="SvgjsPath1031" d="M 0 35C 0 -11.666666666666666 70 -11.666666666666666 70 35C 70 81.66666666666667 0 81.66666666666667 0 35Z" stroke="#323232" stroke-width="2" fill-opacity="1" fill="#ffffff"></path><g id="SvgjsG1032"><text id="SvgjsText1033" font-family="微软雅黑" text-anchor="middle" font-size="13px" width="44" fill="#323232" font-weight="400" align="middle" anchor="middle" family="微软雅黑" size="13px" weight="400" font-style="" y="17.05" transform="rotate(0)"><tspan id="SvgjsTspan1034" dy="16" x="35"><tspan id="SvgjsTspan1035" style="text-decoration:;">server-</tspan></tspan><tspan id="SvgjsTspan1036" dy="16" x="35"><tspan id="SvgjsTspan1037" style="text-decoration:;">config</tspan></tspan></text></g></g><g id="SvgjsG1038" transform="translate(215,460.30596959721356)"><path id="SvgjsPath1039" d="M 0 35C 0 -11.666666666666666 70 -11.666666666666666 70 35C 70 81.66666666666667 0 81.66666666666667 0 35Z" stroke="#323232" stroke-width="2" fill-opacity="1" fill="#ffffff"></path><g id="SvgjsG1040"><text id="SvgjsText1041" font-family="微软雅黑" text-anchor="middle" font-size="13px" width="18" fill="#323232" font-weight="400" align="middle" anchor="middle" family="微软雅黑" size="13px" weight="400" font-style="" y="25.05" transform="rotate(0)"><tspan id="SvgjsTspan1042" dy="16" x="35"><tspan id="SvgjsTspan1043" style="text-decoration:;">ms</tspan></tspan></text></g></g><g id="SvgjsG1044" transform="translate(215,324.8256886519598)"><path id="SvgjsPath1045" d="M 0 35C 0 -11.666666666666666 70 -11.666666666666666 70 35C 70 81.66666666666667 0 81.66666666666667 0 35Z" stroke="#323232" stroke-width="2" fill-opacity="1" fill="#ffffff"></path><g id="SvgjsG1046"><text id="SvgjsText1047" font-family="微软雅黑" text-anchor="middle" font-size="13px" width="38" fill="#323232" font-weight="400" align="middle" anchor="middle" family="微软雅黑" size="13px" weight="400" font-style="" y="25.05" transform="rotate(0)"><tspan id="SvgjsTspan1048" dy="16" x="35"><tspan id="SvgjsTspan1049" style="text-decoration:;">server</tspan></tspan></text></g></g><g id="SvgjsG1050"><path id="SvgjsPath1051" d="M250 394.8256886519598C 250 421.01780103006126 250 434.1138572191121 250 460.30596959721356" stroke="#323232" stroke-width="2" fill="none" marker-end="url(#SvgjsMarker1052)"></path></g><g id="SvgjsG1054" transform="translate(87.66666666666674,335.3881370995182)"><path id="SvgjsPath1055" d="M 0 35C 0 -11.666666666666666 70 -11.666666666666666 70 35C 70 81.66666666666667 0 81.66666666666667 0 35Z" stroke="#323232" stroke-width="2" fill-opacity="1" fill="#ffffff"></path><g id="SvgjsG1056"><text id="SvgjsText1057" font-family="微软雅黑" text-anchor="middle" font-size="13px" width="40" fill="#323232" font-weight="400" align="middle" anchor="middle" family="微软雅黑" size="13px" weight="400" font-style="" y="25.05" transform="rotate(0)"><tspan id="SvgjsTspan1058" dy="16" x="35"><tspan id="SvgjsTspan1059" style="text-decoration:;">config</tspan></tspan></text></g></g><g id="SvgjsG1060" transform="translate(209.5,73.95172447408049)"><path id="SvgjsPath1061" d="M 0 37.04827552591962C 0 -12.349425175306541 75 -12.349425175306541 75 37.04827552591962C 75 86.44597622714578 0 86.44597622714578 0 37.04827552591962Z" stroke="#323232" stroke-width="2" fill-opacity="1" fill="#ffffff"></path><g id="SvgjsG1062"><text id="SvgjsText1063" font-family="微软雅黑" text-anchor="middle" font-size="13px" width="26" fill="#000000" font-weight="400" align="middle" anchor="middle" family="微软雅黑" size="13px" weight="400" font-style="" y="27.09827552591962" transform="rotate(0)"><tspan id="SvgjsTspan1064" dy="16" x="37.5"><tspan id="SvgjsTspan1065" style="text-decoration:;">服务</tspan></tspan></text></g></g><g id="SvgjsG1066" transform="translate(212,208.84707242185232)"><path id="SvgjsPath1067" d="M 0 35C 0 -11.666666666666666 70 -11.666666666666666 70 35C 70 81.66666666666667 0 81.66666666666667 0 35Z" stroke="#323232" stroke-width="2" fill-opacity="1" fill="#ffffff"></path><g id="SvgjsG1068"><text id="SvgjsText1069" font-family="微软雅黑" text-anchor="middle" font-size="13px" width="48" fill="#323232" font-weight="400" align="middle" anchor="middle" family="微软雅黑" size="13px" weight="400" font-style="" y="25.05" transform="rotate(0)"><tspan id="SvgjsTspan1070" dy="16" x="35"><tspan id="SvgjsTspan1071" style="text-decoration:;">module</tspan></tspan></text></g></g><g id="SvgjsG1072" transform="translate(333,62)"><path id="SvgjsPath1073" d="M 0 36C 0 -12 74 -12 74 36C 74 84 0 84 0 36Z" stroke="#323232" stroke-width="2" fill-opacity="1" fill="#ffffff"></path><g id="SvgjsG1074"><text id="SvgjsText1075" font-family="微软雅黑" text-anchor="middle" font-size="13px" width="26" fill="#323232" font-weight="400" align="middle" anchor="middle" family="微软雅黑" size="13px" weight="400" font-style="" y="26.05" transform="rotate(0)"><tspan id="SvgjsTspan1076" dy="16" x="37"><tspan id="SvgjsTspan1077" style="text-decoration:;">路由</tspan></tspan></text></g></g><g id="SvgjsG1078" transform="translate(356.16666666666674,257.9078943012371)"><path id="SvgjsPath1079" d="M 0 33.45889717536136C 0 -11.152965725120453 69 -11.152965725120453 69 33.45889717536136C 69 78.07076007584317 0 78.07076007584317 0 33.45889717536136Z" stroke="#323232" stroke-width="2" fill-opacity="1" fill="#ffffff"></path><g id="SvgjsG1080"><text id="SvgjsText1081" font-family="微软雅黑" text-anchor="middle" font-size="13px" width="44" fill="#323232" font-weight="400" align="middle" anchor="middle" family="微软雅黑" size="13px" weight="400" font-style="" y="15.508897175361358" transform="rotate(0)"><tspan id="SvgjsTspan1082" dy="16" x="34.5"><tspan id="SvgjsTspan1083" style="text-decoration:;">server-</tspan></tspan><tspan id="SvgjsTspan1084" dy="16" x="34.5"><tspan id="SvgjsTspan1085" style="text-decoration:;">acl</tspan></tspan></text></g></g><g id="SvgjsG1086"><path id="SvgjsPath1087" d="M215 359.8256886519598C 191.6807326759405 359.8256886519598 180.98593399072624 370.3881370995182 157.66666666666674 370.3881370995182" stroke="#323232" stroke-width="2" fill="none" marker-end="url(#SvgjsMarker1088)"></path></g><g id="SvgjsG1090"><path id="SvgjsPath1091" d="M284.0607689879512 367.2232016400551C 310.03353099457473 371.80290034534255 322.2932329409662 380.3881370995182 348.66666666666674 380.3881370995182" stroke="#323232" stroke-width="2" fill="none" marker-end="url(#SvgjsMarker1092)"></path></g><g id="SvgjsG1094"><path id="SvgjsPath1095" d="M247 208.84707242185232C 247 184.52755366347924 247 172.3677942842926 247 148.0482755259195" stroke="#323232" stroke-width="2" fill="none" marker-end="url(#SvgjsMarker1096)"></path></g><g id="SvgjsG1098"><path id="SvgjsPath1099" d="M250 324.8256886519598C 250 306.3951351043943 247 297.27762596941784 247 278.8470724218523" stroke="#323232" stroke-width="2" fill="none" marker-end="url(#SvgjsMarker1100)"></path></g><g id="SvgjsG1102"><path id="SvgjsPath1103" d="M212 243.84707242185232C 189.44716614952824 243.84707242185232 180.2195005171385 258.9078943012371 157.66666666666674 258.9078943012371" stroke="#323232" stroke-width="2" fill="none" marker-end="url(#SvgjsMarker1104)"></path></g><g id="SvgjsG1106"><path id="SvgjsPath1107" d="M282 243.84707242185232C 313.966446224075 243.84707242185232 323.70022044259173 212.86630825355815 355.66666666666674 212.86630825355815" stroke="#323232" stroke-width="2" fill="none" marker-end="url(#SvgjsMarker1108)"></path></g><g id="SvgjsG1110"><path id="SvgjsPath1111" d="M282 243.84707242185232C 317.23366150370737 243.84707242185232 320.9330051629594 291.36679147659834 356.16666666666674 291.36679147659834" stroke="#323232" stroke-width="2" fill="none" marker-end="url(#SvgjsMarker1112)"></path></g><g id="SvgjsG1114" transform="translate(25,25)"><path id="SvgjsPath1115" d="M 0 0L 421 0L 421 146L 0 146Z" stroke="#323232" stroke-width="2" fill="none"></path><path id="SvgjsPath1116" d="M 0 0L 40 0L 40 146L 0 146Z" stroke="#323232" stroke-width="2" fill-opacity="1" fill="#ffffff"></path><g id="SvgjsG1117"><text id="SvgjsText1118" font-family="微软雅黑" text-anchor="middle" font-size="16px" width="32" fill="#323232" font-weight="400" align="middle" anchor="middle" family="微软雅黑" size="16px" weight="400" font-style="" y="7.6" transform="rotate(270)"><tspan id="SvgjsTspan1119" dy="20" x="-73"><tspan id="SvgjsTspan1120" style="text-decoration:;">应用</tspan></tspan></text></g></g><g id="SvgjsG1121" transform="translate(25,171)"><path id="SvgjsPath1122" d="M 0 0L 421 0L 421 261.3881370995182L 0 261.3881370995182Z" stroke="#3333ff" stroke-width="2" fill="none"></path><path id="SvgjsPath1123" d="M 0 0L 40 0L 40 261.3881370995182L 0 261.3881370995182Z" stroke="#3333ff" stroke-width="2" fill-opacity="1" fill="#99ff99"></path><g id="SvgjsG1124"><text id="SvgjsText1125" font-family="微软雅黑" text-anchor="middle" font-size="16px" width="76" fill="#660000" font-weight="700" align="middle" anchor="middle" family="微软雅黑" size="16px" weight="700" font-style="" y="7.6" transform="rotate(270)"><tspan id="SvgjsTspan1126" dy="20" x="-130.3881370995182"><tspan id="SvgjsTspan1127" style="text-decoration:;">jm-server</tspan></tspan></text></g></g><g id="SvgjsG1128" transform="translate(87.66666666666674,60.95172447408049)"><path id="SvgjsPath1129" d="M 0 37.04827552591962C 0 -12.349425175306541 75 -12.349425175306541 75 37.04827552591962C 75 86.44597622714578 0 86.44597622714578 0 37.04827552591962Z" stroke="#323232" stroke-width="2" fill-opacity="1" fill="#ffffff"></path><g id="SvgjsG1130"><text id="SvgjsText1131" font-family="微软雅黑" text-anchor="middle" font-size="13px" width="40" fill="#000000" font-weight="400" align="middle" anchor="middle" family="微软雅黑" size="13px" weight="400" font-style="" y="27.09827552591962" transform="rotate(0)"><tspan id="SvgjsTspan1132" dy="16" x="37.5"><tspan id="SvgjsTspan1133" style="text-decoration:;">控制器</tspan></tspan></text></g></g><g id="SvgjsG1134"><path id="SvgjsPath1135" d="M209.5 111.00000000000011C 190.13233075716573 112.69445149766784 182.034335909501 99.69445149766784 162.66666666666674 98.00000000000011" stroke="#323232" stroke-width="2" fill="none" marker-end="url(#SvgjsMarker1136)"></path></g><g id="SvgjsG1138"><path id="SvgjsPath1139" d="M125.16666666666674 60.95172447408049C 182 49 271 42 370 62" stroke="#323232" stroke-width="2" fill="none" marker-end="url(#SvgjsMarker1140)"></path></g></svg>